<svg width="60px" height="44px" viewBox="0 0 60 44">
    <g stroke="none" stroke-width="1" fill="none" fill-rule="evenodd">
        <g transform="translate(-18.000000, -26.000000)" fill-rule="nonzero">
            <g transform="translate(18.000000, 26.000000)">
                <path d="M0.936632835,31.0042194 C0.312210945,31.0042194 0,30.6911558 0,30.0650285 L0,15.9771655 C0,15.3510383 0.312210945,15.0379747 0.936632835,15.0379747 L9.36632835,15.0379747 C11.1147096,15.0379747 12.4884378,15.4723505 13.4875128,16.341102 C14.4865879,17.2098536 14.9861254,18.4190618 14.9861254,19.9687267 C14.9861254,20.3757094 14.9275858,20.7435592 14.8105067,21.072276 C14.6934276,21.4009928 14.5724459,21.6749235 14.4475615,21.894068 C14.291456,22.1601721 14.11974,22.3949698 13.9324134,22.5984612 C14.2290138,22.7706461 14.5021984,23.0132705 14.7519672,23.3263341 C14.9705148,23.5924382 15.1656467,23.948548 15.3373627,24.3946637 C15.5090787,24.8407793 15.5949367,25.4003806 15.5949367,26.0734674 C15.5949367,26.7778605 15.4973708,27.4313808 15.3022389,28.0340283 C15.1071071,28.6366758 14.7714803,29.157144 14.2953586,29.5954331 C13.819237,30.0337222 13.1831072,30.3780922 12.3869692,30.6285431 C11.5908313,30.878994 10.583951,31.0042194 9.36632835,31.0042194 L0.936632835,31.0042194 Z M8.31261641,21.1427153 C8.53116408,21.1427153 8.72239328,21.0605361 8.88630403,20.8961777 C9.05021477,20.7318193 9.13217014,20.5400678 9.13217014,20.3209233 C9.13217014,20.1017788 9.05021477,19.9100273 8.88630403,19.7456689 C8.72239328,19.5813105 8.53116408,19.4991313 8.31261641,19.4991313 L6.08811343,19.4991313 C5.93200796,19.4991313 5.85395522,19.5773972 5.85395522,19.733929 L5.85395522,20.9079176 C5.85395522,21.0644494 5.93200796,21.1427153 6.08811343,21.1427153 L8.31261641,21.1427153 Z M8.54677462,26.5430628 C8.76532228,26.5430628 8.95655149,26.4608836 9.12046223,26.2965252 C9.28437298,26.1321668 9.36632835,25.9404153 9.36632835,25.7212708 C9.36632835,25.5021263 9.28437298,25.3103748 9.12046223,25.1460164 C8.95655149,24.981658 8.76532228,24.8994788 8.54677462,24.8994788 L6.08811343,24.8994788 C5.93200796,24.8994788 5.85395522,24.9777447 5.85395522,25.1342765 L5.85395522,26.3082651 C5.85395522,26.4647969 5.93200796,26.5430628 6.08811343,26.5430628 L8.54677462,26.5430628 Z" id="logo-b" fill="#2563EB"></path>
                <path d="M16.3375527,23.021097 C16.3375527,21.8698348 16.5532441,20.7846923 16.9846268,19.7656696 C17.4160095,18.7466469 18.0081802,17.8598638 18.7611391,17.1053202 C19.514098,16.3507767 20.404315,15.7556986 21.4317901,15.3200858 C22.4592653,14.884473 23.5769386,14.6666667 24.7848101,14.6666667 C25.976995,14.6666667 27.0907467,14.884473 28.1260651,15.3200858 C29.1613836,15.7556986 30.0555223,16.3507767 30.8084811,17.1053202 C31.56144,17.8598638 32.1536108,18.7466469 32.5849935,19.7656696 C33.0163762,20.7846923 33.2320675,21.8698348 33.2320675,23.021097 C33.2320675,24.1723593 33.0163762,25.2575018 32.5849935,26.2765245 C32.1536108,27.2955472 31.56144,28.1823303 30.8084811,28.9368739 C30.0555223,29.6914174 29.1613836,30.2864955 28.1260651,30.7221083 C27.0907467,31.157721 25.976995,31.3755274 24.7848101,31.3755274 C23.5769386,31.3755274 22.4592653,31.157721 21.4317901,30.7221083 C20.404315,30.2864955 19.514098,29.6914174 18.7611391,28.9368739 C18.0081802,28.1823303 17.4160095,27.2955472 16.9846268,26.2765245 C16.5532441,25.2575018 16.3375527,24.1723593 16.3375527,23.021097 Z M22.4318136,23.021097 C22.4318136,23.7523042 22.6318183,24.3551611 23.0318277,24.8296679 C23.4318371,25.3041746 24.0161646,25.541428 24.7848101,25.541428 C25.537769,25.541428 26.1142531,25.3041746 26.5142625,24.8296679 C26.9142719,24.3551611 27.1142766,23.7523042 27.1142766,23.021097 C27.1142766,22.2898899 26.9142719,21.687033 26.5142625,21.2125262 C26.1142531,20.7380195 25.537769,20.5007661 24.7848101,20.5007661 C24.0161646,20.5007661 23.4318371,20.7380195 23.0318277,21.2125262 C22.6318183,21.687033 22.4318136,22.2898899 22.4318136,23.021097 Z" id="logo-o" fill="#2563EB"></path>
                <path d="M44.556962,25.6038719 C45.1758087,25.6038719 45.4852321,25.9169356 45.4852321,26.5430628 L45.4852321,30.0650285 C45.4852321,30.6911558 45.1758087,31.0042194 44.556962,31.0042194 L35.2742616,31.0042194 C34.6554149,31.0042194 34.3459916,30.6911558 34.3459916,30.0650285 L34.3459916,15.9771655 C34.3459916,15.3510383 34.6554149,15.0379747 35.2742616,15.0379747 L39.2194093,15.0379747 C39.838256,15.0379747 40.1476793,15.3510383 40.1476793,15.9771655 L40.1476793,24.8994788 C40.1476793,25.1968892 40.190225,25.3886407 40.2753165,25.4747332 C40.3604079,25.5608257 40.5499297,25.6038719 40.8438819,25.6038719 L44.556962,25.6038719 Z" id="logo-l" fill="#2563EB"></path>
                <path d="M47.348174,20.4383222 C46.7250594,20.4383222 46.4135021,20.1252585 46.4135021,19.4991313 L46.4135021,15.9771655 C46.4135021,15.3510383 46.7250594,15.0379747 47.348174,15.0379747 L59.0315728,15.0379747 C59.6546874,15.0379747 59.9662447,15.3510383 59.9662447,15.9771655 L59.9662447,19.4991313 C59.9662447,20.1252585 59.6546874,20.4383222 59.0315728,20.4383222 L56.811727,20.4383222 C56.5157476,20.4383222 56.3249188,20.4813684 56.2392405,20.5674609 C56.1535622,20.6535534 56.1107231,20.8453049 56.1107231,21.1427153 L56.1107231,30.0650285 C56.1107231,30.6911558 55.7991658,31.0042194 55.1760512,31.0042194 L51.2036956,31.0042194 C50.580581,31.0042194 50.2690237,30.6911558 50.2690237,30.0650285 L50.2690237,21.1427153 C50.2690237,20.8453049 50.2261846,20.6535534 50.1405063,20.5674609 C50.0548281,20.4813684 49.8639992,20.4383222 49.5680198,20.4383222 L47.348174,20.4383222 Z" id="logo-t" fill="#2563EB"></path>
                <path d="M23.8351185,39.1485256 C23.8351185,39.4113138 23.8729633,39.6235658 23.948653,39.7852816 C24.0243427,39.9469974 24.1202164,40.0708111 24.2362739,40.1567226 C24.3523315,40.2426342 24.473435,40.298224 24.5995846,40.3234921 C24.7257341,40.3487602 24.8443146,40.3613942 24.9553262,40.3613942 C25.0663378,40.3613942 25.1899643,40.3487602 25.3262058,40.3234921 C25.4624473,40.298224 25.5885968,40.2426342 25.7046543,40.1567226 C25.8207119,40.0708111 25.9165855,39.9469974 25.9922752,39.7852816 C26.0679649,39.6235658 26.1058098,39.4113138 26.1058098,39.1485256 L26.1058098,34.0241558 C26.1058098,33.6198663 26.307649,33.4177215 26.7113275,33.4177215 L29.2847777,33.4177215 C29.6884561,33.4177215 29.8902954,33.6198663 29.8902954,34.0241558 L29.8902954,39.1788473 C29.8902954,39.8964613 29.7944217,40.5509049 29.6026745,41.1421784 C29.4109272,41.7334518 29.1132143,42.2413405 28.7095359,42.6658445 C28.3058574,43.0903486 27.7936904,43.4188338 27.1730347,43.6513003 C26.5523791,43.8837668 25.8181889,44 24.9704641,44 C24.1227394,44 23.3885492,43.8837668 22.7678935,43.6513003 C22.1472379,43.4188338 21.6350709,43.0903486 21.2313924,42.6658445 C20.8277139,42.2413405 20.5300011,41.7334518 20.3382538,41.1421784 C20.1465065,40.5509049 20.0506329,39.8964613 20.0506329,39.1788473 L20.0506329,34.0241558 C20.0506329,33.6198663 20.2524721,33.4177215 20.6561506,33.4177215 L23.2296008,33.4177215 C23.6332792,33.4177215 23.8351185,33.6198663 23.8351185,34.0241558 L23.8351185,39.1485256 Z" id="logo-u" fill="#94A3B8"></path>
                <path d="M31.2471772,34.3937702 C31.1782052,34.2936626 31.1437192,34.1685282 31.1437192,34.0183668 C31.1437192,33.6179366 31.3407821,33.4177215 31.734908,33.4177215 L34.9716663,33.4177215 C35.1588761,33.4177215 35.3017467,33.4752834 35.4002782,33.590407 C35.4988096,33.7055307 35.5924145,33.848184 35.6810928,34.0183668 L36.2722815,35.1145446 L36.9669283,34.0183668 C37.0753129,33.848184 37.1787709,33.7055307 37.2773024,33.590407 C37.3758339,33.4752834 37.4989982,33.4177215 37.6467954,33.4177215 L40.6322985,33.4177215 C41.0264243,33.4177215 41.2234873,33.6179366 41.2234873,34.0183668 C41.2234873,34.1685282 41.1890012,34.2936626 41.1200292,34.3937702 L38.6961554,38.1177712 L41.3121656,42.6676595 C41.3712844,42.7777778 41.4008439,42.8979068 41.4008439,43.0280467 C41.4008439,43.4284769 41.203781,43.628692 40.8096551,43.628692 L37.7945926,43.628692 C37.6270891,43.628692 37.489145,43.5686275 37.3807604,43.4484984 C37.2723758,43.3283693 37.1639912,43.1882187 37.0556066,43.0280467 L36.0801452,41.3312236 L35.1638027,43.0280467 C35.0554181,43.1882187 34.9544233,43.3283693 34.8608184,43.4484984 C34.7672135,43.5686275 34.6218796,43.628692 34.4248167,43.628692 L31.4097541,43.628692 C31.0156283,43.628692 30.8185654,43.4284769 30.8185654,43.0280467 C30.8185654,42.9079176 30.8431983,42.7977993 30.892464,42.6976917 L33.6562714,38.102755 L31.2471772,34.3937702 Z" id="logo-x" fill="#94A3B8"></path>
                <path d="M35.5564902,5.38860759 C35.4256592,5.14225343 35.1639971,4.98945148 34.8799981,4.98945148 L29.8828915,4.98945148 L31.5051961,1.02595596 C31.5999369,0.795973431 31.5709945,0.533871308 31.4284206,0.328056435 C31.2858467,0.122241561 31.0220787,0 30.7955176,0 L25.179357,0 C24.7954796,0 24.471274,0.277725343 24.4205371,0.649876055 L23.399417,8.13405327 C23.3694886,8.347976 23.4363049,8.5631461 23.5818784,8.72530327 C23.7274518,8.88746044 23.9377387,8.98101266 24.1582369,8.98101266 L28.8266704,8.98101266 L27.4934704,15.033841 C27.416695,15.3837263 27.6041662,15.7373536 27.9402105,15.8786175 C28.0384933,15.9475343 28.1406053,15.9662447 28.2427173,15.9662447 C28.4890306,15.9662447 28.7283876,15.8493045 28.8748545,15.640683 L35.5121353,6.16072521 C35.6713662,5.93121044 35.6905122,5.63496176 35.5564902,5.38860759 Z" id="logo-icon" fill="#2563EB"></path>
            </g>
        </g>
    </g>
</svg>