<?xml version="1.0" standalone="no"?>
<!DOCTYPE svg PUBLIC "-//W3C//DTD SVG 20010904//EN"
 "http://www.w3.org/TR/2001/REC-SVG-20010904/DTD/svg10.dtd">
<svg version="1.0" xmlns="http://www.w3.org/2000/svg"
 width="960.000000pt" height="960.000000pt" viewBox="0 0 960.000000 960.000000"
 preserveAspectRatio="xMidYMid meet">
<metadata>
Created by potrace 1.14, written by Peter Selinger 2001-2017
</metadata>
<g transform="translate(0.000000,960.000000) scale(0.100000,-0.100000)"
fill="#000000" stroke="none">
<path d="M4240 9274 c-19 -2 -98 -9 -175 -14 -673 -52 -1344 -271 -1947 -636
-955 -580 -1653 -1515 -1963 -2632 -171 -617 -201 -1369 -80 -2027 181 -989
717 -1928 1464 -2567 981 -840 2235 -1204 3572 -1038 1101 137 2138 698 2833
1534 529 636 880 1411 996 2198 40 278 45 349 45 708 0 359 -5 430 -45 708
-170 1160 -841 2259 -1790 2934 -785 558 -1704 845 -2682 836 -106 0 -209 -3
-228 -4z m490 -3121 c52 -8 137 -30 189 -49 368 -131 636 -487 723 -960 31
-172 31 -516 0 -688 -88 -477 -360 -836 -729 -962 -143 -49 -262 -67 -443 -67
-443 1 -748 151 -964 476 -139 209 -214 444 -238 745 -31 399 53 771 238 1049
192 288 460 441 829 473 113 10 272 3 395 -17z"/>
</g>
</svg>
